<?xml version="1.0" ?><!DOCTYPE svg  PUBLIC '-//W3C//DTD SVG 1.1//EN'  'http://www.w3.org/Graphics/SVG/1.1/DTD/svg11.dtd'><svg enable-background="new 0 0 32 32" height="32px" version="1.1" viewBox="0 0 32 32" width="32px" xml:space="preserve" xmlns="http://www.w3.org/2000/svg" xmlns:xlink="http://www.w3.org/1999/xlink"><g id="system_unit_x2C__case_x2C__computer"><g><path d="M27.5,29c-0.276,0-0.5-0.224-0.5-0.5v-26C27,2.224,27.224,2,27.5,2S28,2.224,28,2.5v26    C28,28.776,27.776,29,27.5,29z" fill="#263238"/></g><g><path d="M27.5,27h-25C2.224,27,2,26.776,2,26.5S2.224,26,2.5,26h25c0.276,0,0.5,0.224,0.5,0.5S27.776,27,27.5,27z" fill="#263238"/></g><path d="M19.5,25c-0.276,0-0.5-0.224-0.5-0.5v-18C19,6.224,19.224,6,19.5,6S20,6.224,20,6.5v18   C20,24.776,19.776,25,19.5,25z" fill="#263238"/><path d="M27.5,27c-0.276,0-0.5-0.224-0.5-0.5v-24C27,2.224,27.224,2,27.5,2S28,2.224,28,2.5v24   C28,26.776,27.776,27,27.5,27z" fill="#263238"/><g><g><path d="M27.5,23h-6c-0.276,0-0.5-0.224-0.5-0.5s0.224-0.5,0.5-0.5h6c0.276,0,0.5,0.224,0.5,0.5     S27.776,23,27.5,23z" fill="#263238"/><path d="M27.5,20h-6c-0.276,0-0.5-0.224-0.5-0.5s0.224-0.5,0.5-0.5H27v-2h-5.5c-0.276,0-0.5-0.224-0.5-0.5     s0.224-0.5,0.5-0.5h6c0.276,0,0.5,0.224,0.5,0.5v3C28,19.776,27.776,20,27.5,20z" fill="#263238"/></g><g><path d="M27.5,17h-6c-0.276,0-0.5-0.224-0.5-0.5s0.224-0.5,0.5-0.5H27v-2h-5.5c-0.276,0-0.5-0.224-0.5-0.5     s0.224-0.5,0.5-0.5h6c0.276,0,0.5,0.224,0.5,0.5v3C28,16.776,27.776,17,27.5,17z" fill="#263238"/></g><g><path d="M27.5,14h-6c-0.276,0-0.5-0.224-0.5-0.5s0.224-0.5,0.5-0.5H27v-2h-5.5c-0.276,0-0.5-0.224-0.5-0.5     s0.224-0.5,0.5-0.5h6c0.276,0,0.5,0.224,0.5,0.5v3C28,13.776,27.776,14,27.5,14z" fill="#263238"/></g><g><path d="M27.5,11h-6c-0.276,0-0.5-0.224-0.5-0.5s0.224-0.5,0.5-0.5H27V8h-5.5C21.224,8,21,7.776,21,7.5     S21.224,7,21.5,7h6C27.776,7,28,7.224,28,7.5v3C28,10.776,27.776,11,27.5,11z" fill="#263238"/></g><g><path d="M27.5,8h-6C21.224,8,21,7.776,21,7.5S21.224,7,21.5,7H27V5h-5.5C21.224,5,21,4.776,21,4.5     S21.224,4,21.5,4h6C27.776,4,28,4.224,28,4.5v3C28,7.776,27.776,8,27.5,8z" fill="#263238"/></g><g><path d="M27.5,5H11c-0.276,0-0.5-0.224-0.5-0.5S10.724,4,11,4h16.5C27.776,4,28,4.224,28,4.5S27.776,5,27.5,5z" fill="#263238"/></g></g><g><path d="M11.5,10h-9C2.224,10,2,9.776,2,9.5v-5C2,4.224,2.224,4,2.5,4h9C11.776,4,12,4.224,12,4.5v5    C12,9.776,11.776,10,11.5,10z M3,9h8V5H3V9z" fill="#263238"/></g><path d="M12.5,15h-3C9.224,15,9,14.776,9,14.5S9.224,14,9.5,14h3c1.378,0,2.5-1.121,2.5-2.5   c0-0.276,0.224-0.5,0.5-0.5s0.5,0.224,0.5,0.5C16,13.43,14.43,15,12.5,15z" fill="#263238"/><path d="M12.5,17h-3C9.224,17,9,16.776,9,16.5S9.224,16,9.5,16h3c1.378,0,2.5-1.121,2.5-2.5v-3   C15,9.121,13.878,8,12.5,8h-1C11.224,8,11,7.776,11,7.5S11.224,7,11.5,7h1c1.93,0,3.5,1.57,3.5,3.5v3C16,15.43,14.43,17,12.5,17z" fill="#263238"/><g><g><g><circle cx="8.5" cy="15.5" fill="#263238" r="0.5"/></g></g></g><g><g><g><circle cx="8.5" cy="17.5" fill="#263238" r="0.5"/></g></g></g><g><g><g><circle cx="8.5" cy="13.5" fill="#263238" r="0.5"/></g></g></g><g><g><g><circle cx="9.5" cy="22.5" fill="#263238" r="0.5"/></g></g></g><g><g><g><circle cx="13.5" cy="22.5" fill="#263238" r="0.5"/></g></g></g><g><g><g><circle cx="5.5" cy="22.5" fill="#263238" r="0.5"/></g></g></g><path d="M15.5,13c-0.276,0-0.5-0.224-0.5-0.5v-2c0-0.276,0.224-0.5,0.5-0.5s0.5,0.224,0.5,0.5v2   C16,12.776,15.776,13,15.5,13z" fill="#263238"/><path d="M9.5,7h-5C4.224,7,4,6.776,4,6.5S4.224,6,4.5,6h5C9.776,6,10,6.224,10,6.5S9.776,7,9.5,7z" fill="#263238"/><path d="M27.5,29c-0.276,0-0.5-0.224-0.5-0.5s0.224-0.5,0.5-0.5c0.827,0,1.5-0.673,1.5-1.5v-22   C29,3.673,28.327,3,27.5,3H3v9h0.5C3.776,12,4,12.224,4,12.5v2C4,14.776,3.776,15,3.5,15H3v1h0.5C3.776,16,4,16.224,4,16.5v2   C4,18.776,3.776,19,3.5,19H3v9h0.5C3.776,28,4,28.224,4,28.5S3.776,29,3.5,29h-1C2.224,29,2,28.776,2,28.5v-10   C2,18.224,2.224,18,2.5,18H3v-1H2.5C2.224,17,2,16.776,2,16.5v-2C2,14.224,2.224,14,2.5,14H3v-1H2.5C2.224,13,2,12.776,2,12.5v-10   C2,2.224,2.224,2,2.5,2h25C28.878,2,30,3.121,30,4.5v22C30,27.879,28.878,29,27.5,29z" fill="#263238"/><path d="M27.5,30h-2c-0.276,0-0.5-0.224-0.5-0.5s0.224-0.5,0.5-0.5h2c0.276,0,0.5,0.224,0.5,0.5S27.776,30,27.5,30z   " fill="#263238"/><path d="M25.5,29h-20C5.224,29,5,28.776,5,28.5S5.224,28,5.5,28h20c0.276,0,0.5,0.224,0.5,0.5S25.776,29,25.5,29z" fill="#263238"/><path d="M5.5,30h-2C3.224,30,3,29.776,3,29.5S3.224,29,3.5,29h2C5.776,29,6,29.224,6,29.5S5.776,30,5.5,30z" fill="#263238"/></g></svg>