<?xml version="1.0" ?><!DOCTYPE svg  PUBLIC '-//W3C//DTD SVG 1.1//EN'  'http://www.w3.org/Graphics/SVG/1.1/DTD/svg11.dtd'><svg enable-background="new 0 0 32 32" height="32px" version="1.1" viewBox="0 0 32 32" width="32px" xml:space="preserve" xmlns="http://www.w3.org/2000/svg" xmlns:xlink="http://www.w3.org/1999/xlink"><g id="core_x2C__cpu_x2C__hardware_x2C__processor"><g id="driver_update_1_"><g id="hardware_x2C__processor_x2C__microprocessor_1_"><g><g><g><g><path d="M4.5,23h-2C2.224,23,2,23.224,2,23.5S2.224,24,2.5,24h2C4.776,24,5,23.776,5,23.5S4.776,23,4.5,23z" fill="#263238"/></g><g><path d="M4.5,21h-2C2.224,21,2,21.224,2,21.5S2.224,22,2.5,22h2C4.776,22,5,21.776,5,21.5S4.776,21,4.5,21z" fill="#263238"/></g><g><path d="M4.5,19h-2C2.224,19,2,19.224,2,19.5S2.224,20,2.5,20h2C4.776,20,5,19.776,5,19.5S4.776,19,4.5,19z" fill="#263238"/></g><g><path d="M4.5,17h-2C2.224,17,2,17.224,2,17.5S2.224,18,2.5,18h2C4.776,18,5,17.776,5,17.5S4.776,17,4.5,17z" fill="#263238"/></g><g><path d="M4.5,15h-2C2.224,15,2,15.224,2,15.5S2.224,16,2.5,16h2C4.776,16,5,15.776,5,15.5S4.776,15,4.5,15z" fill="#263238"/></g><g><path d="M4.5,13h-2C2.224,13,2,13.224,2,13.5S2.224,14,2.5,14h2C4.776,14,5,13.776,5,13.5S4.776,13,4.5,13z" fill="#263238"/></g><g><path d="M4.5,11h-2C2.224,11,2,11.224,2,11.5S2.224,12,2.5,12h2C4.776,12,5,11.776,5,11.5S4.776,11,4.5,11z" fill="#263238"/></g><g><path d="M4.5,9h-2C2.224,9,2,9.224,2,9.5S2.224,10,2.5,10h2C4.776,10,5,9.776,5,9.5S4.776,9,4.5,9z" fill="#263238"/></g></g><g><g><path d="M29.5,22h-2c-0.276,0-0.5,0.224-0.5,0.5s0.224,0.5,0.5,0.5h2c0.276,0,0.5-0.224,0.5-0.5         S29.776,22,29.5,22z" fill="#263238"/></g><g><path d="M29.5,20h-2c-0.276,0-0.5,0.224-0.5,0.5s0.224,0.5,0.5,0.5h2c0.276,0,0.5-0.224,0.5-0.5         S29.776,20,29.5,20z" fill="#263238"/></g><g><path d="M29.5,18h-2c-0.276,0-0.5,0.224-0.5,0.5s0.224,0.5,0.5,0.5h2c0.276,0,0.5-0.224,0.5-0.5         S29.776,18,29.5,18z" fill="#263238"/></g><g><path d="M29.5,16h-2c-0.276,0-0.5,0.224-0.5,0.5s0.224,0.5,0.5,0.5h2c0.276,0,0.5-0.224,0.5-0.5         S29.776,16,29.5,16z" fill="#263238"/></g><g><path d="M29.5,14h-2c-0.276,0-0.5,0.224-0.5,0.5s0.224,0.5,0.5,0.5h2c0.276,0,0.5-0.224,0.5-0.5         S29.776,14,29.5,14z" fill="#263238"/></g><g><path d="M29.5,12h-2c-0.276,0-0.5,0.224-0.5,0.5s0.224,0.5,0.5,0.5h2c0.276,0,0.5-0.224,0.5-0.5         S29.776,12,29.5,12z" fill="#263238"/></g><g><path d="M29.5,10h-2c-0.276,0-0.5,0.224-0.5,0.5s0.224,0.5,0.5,0.5h2c0.276,0,0.5-0.224,0.5-0.5         S29.776,10,29.5,10z" fill="#263238"/></g><g><path d="M29.5,8h-2C27.224,8,27,8.224,27,8.5S27.224,9,27.5,9h2C29.776,9,30,8.776,30,8.5S29.776,8,29.5,8z" fill="#263238"/></g></g><g><g><path d="M22.5,27c-0.276,0-0.5,0.224-0.5,0.5v2c0,0.276,0.224,0.5,0.5,0.5s0.5-0.224,0.5-0.5v-2         C23,27.224,22.776,27,22.5,27z" fill="#263238"/></g><g><path d="M20.5,27c-0.276,0-0.5,0.224-0.5,0.5v2c0,0.276,0.224,0.5,0.5,0.5s0.5-0.224,0.5-0.5v-2         C21,27.224,20.776,27,20.5,27z" fill="#263238"/></g><g><path d="M18.5,27c-0.276,0-0.5,0.224-0.5,0.5v2c0,0.276,0.224,0.5,0.5,0.5s0.5-0.224,0.5-0.5v-2         C19,27.224,18.776,27,18.5,27z" fill="#263238"/></g><g><path d="M16.5,27c-0.276,0-0.5,0.224-0.5,0.5v2c0,0.276,0.224,0.5,0.5,0.5s0.5-0.224,0.5-0.5v-2         C17,27.224,16.776,27,16.5,27z" fill="#263238"/></g><g><path d="M14.5,27c-0.276,0-0.5,0.224-0.5,0.5v2c0,0.276,0.224,0.5,0.5,0.5s0.5-0.224,0.5-0.5v-2         C15,27.224,14.776,27,14.5,27z" fill="#263238"/></g><g><path d="M12.5,27c-0.276,0-0.5,0.224-0.5,0.5v2c0,0.276,0.224,0.5,0.5,0.5s0.5-0.224,0.5-0.5v-2         C13,27.224,12.776,27,12.5,27z" fill="#263238"/></g><g><path d="M10.5,27c-0.276,0-0.5,0.224-0.5,0.5v2c0,0.276,0.224,0.5,0.5,0.5s0.5-0.224,0.5-0.5v-2         C11,27.224,10.776,27,10.5,27z" fill="#263238"/></g><g><path d="M8.5,27C8.224,27,8,27.224,8,27.5v2C8,29.776,8.224,30,8.5,30S9,29.776,9,29.5v-2         C9,27.224,8.776,27,8.5,27z" fill="#263238"/></g></g><g><g><path d="M23.5,2C23.224,2,23,2.224,23,2.5v2C23,4.776,23.224,5,23.5,5S24,4.776,24,4.5v-2         C24,2.224,23.776,2,23.5,2z" fill="#263238"/></g><g><path d="M21.5,2C21.224,2,21,2.224,21,2.5v2C21,4.776,21.224,5,21.5,5S22,4.776,22,4.5v-2         C22,2.224,21.776,2,21.5,2z" fill="#263238"/></g><g><path d="M19.5,2C19.224,2,19,2.224,19,2.5v2C19,4.776,19.224,5,19.5,5S20,4.776,20,4.5v-2         C20,2.224,19.776,2,19.5,2z" fill="#263238"/></g><g><path d="M17.5,2C17.224,2,17,2.224,17,2.5v2C17,4.776,17.224,5,17.5,5S18,4.776,18,4.5v-2         C18,2.224,17.776,2,17.5,2z" fill="#263238"/></g><g><path d="M15.5,2C15.224,2,15,2.224,15,2.5v2C15,4.776,15.224,5,15.5,5S16,4.776,16,4.5v-2         C16,2.224,15.776,2,15.5,2z" fill="#263238"/></g><g><path d="M13.5,2C13.224,2,13,2.224,13,2.5v2C13,4.776,13.224,5,13.5,5S14,4.776,14,4.5v-2         C14,2.224,13.776,2,13.5,2z" fill="#263238"/></g><g><path d="M11.5,2C11.224,2,11,2.224,11,2.5v2C11,4.776,11.224,5,11.5,5S12,4.776,12,4.5v-2         C12,2.224,11.776,2,11.5,2z" fill="#263238"/></g><g><path d="M9.5,2C9.224,2,9,2.224,9,2.5v2C9,4.776,9.224,5,9.5,5S10,4.776,10,4.5v-2C10,2.224,9.776,2,9.5,2z" fill="#263238"/></g></g></g></g></g></g><g><g><path d="M26.5,28h-21C4.673,28,4,27.327,4,26.5v-17C4,9.224,4.224,9,4.5,9S5,9.224,5,9.5v17     C5,26.775,5.224,27,5.5,27h21c0.276,0,0.5-0.225,0.5-0.5v-21C27,5.225,26.776,5,26.5,5h-21C5.224,5,5,5.225,5,5.5v2     C5,7.776,4.776,8,4.5,8S4,7.776,4,7.5v-2C4,4.673,4.673,4,5.5,4h21C27.327,4,28,4.673,28,5.5v21C28,27.327,27.327,28,26.5,28z" fill="#263238"/></g></g><path d="M24.5,25h-17C7.224,25,7,24.776,7,24.5v-17C7,7.224,7.224,7,7.5,7h17C24.776,7,25,7.224,25,7.5v17   C25,24.776,24.776,25,24.5,25z M8,24h16V8H8V24z" fill="#263238"/><path d="M17.5,19h-3c-0.276,0-0.5-0.224-0.5-0.5s0.224-0.5,0.5-0.5h3c0.276,0,0.5,0.224,0.5,0.5S17.776,19,17.5,19z   " fill="#263238"/><path d="M16.5,21h-2c-0.276,0-0.5-0.224-0.5-0.5s0.224-0.5,0.5-0.5h2c0.276,0,0.5,0.224,0.5,0.5S16.776,21,16.5,21z   " fill="#263238"/></g></svg>