<?xml version="1.0" ?><svg id="Layer_1" style="enable-background:new 0 0 134 134;" version="1.1" viewBox="0 0 134 134" xml:space="preserve" xmlns="http://www.w3.org/2000/svg" xmlns:xlink="http://www.w3.org/1999/xlink"><g><g><g><path d="M17.8,104.2c-0.5,0-1-0.4-1-1V31.8H4c-0.5,0-1-0.4-1-1s0.4-1,1-1h13.8c0.5,0,1,0.4,1,1v72.4     C18.8,103.7,18.3,104.2,17.8,104.2z"/></g></g><g><g><path d="M17.8,81.3h-6.4c-0.5,0-1-0.4-1-1V53.7c0-0.5,0.4-1,1-1h6.4c0.5,0,1,0.4,1,1v26.6C18.8,80.8,18.3,81.3,17.8,81.3z      M12.4,79.3h4.4V54.7h-4.4V79.3z"/></g></g><g><g><path d="M17.8,46.1h-6.4c-0.5,0-1-0.4-1-1c0-0.5,0.4-1,1-1h6.4c0.5,0,1,0.4,1,1C18.8,45.6,18.3,46.1,17.8,46.1z"/></g></g><g><g><path d="M17.8,89.9h-6.4c-0.5,0-1-0.4-1-1c0-0.5,0.4-1,1-1h6.4c0.5,0,1,0.4,1,1C18.8,89.5,18.3,89.9,17.8,89.9z"/></g></g><g><g><g><path d="M49.7,88.5c-11.9,0-21.5-9.6-21.5-21.5s9.6-21.5,21.5-21.5S71.2,55.1,71.2,67S61.5,88.5,49.7,88.5z M49.7,47.5      c-10.8,0-19.5,8.8-19.5,19.5s8.8,19.5,19.5,19.5c10.8,0,19.5-8.8,19.5-19.5S60.4,47.5,49.7,47.5z"/></g></g><g><g><path d="M70.2,68c-0.2,0-0.4-0.1-0.6-0.2c-4.7-3.4-11-4.1-16.3-1.7c-0.5,0.2-1.1,0-1.3-0.5c-0.2-0.5,0-1.1,0.5-1.3      c6-2.7,13-1.9,18.3,1.9c0.4,0.3,0.5,0.9,0.2,1.4C70.8,67.8,70.5,68,70.2,68z"/></g></g><g><g><path d="M64.2,82.5c-0.5,0-0.9-0.3-1-0.8c-0.9-5.8-4.9-10.7-10.3-12.8c-0.5-0.2-0.8-0.8-0.6-1.3c0.2-0.5,0.8-0.8,1.3-0.6      c6.1,2.3,10.5,7.8,11.5,14.3c0.1,0.5-0.3,1-0.8,1.1C64.3,82.5,64.2,82.5,64.2,82.5z"/></g></g><g><g><path d="M49.7,88.5c-0.2,0-0.4-0.1-0.6-0.2c-0.4-0.3-0.5-0.9-0.2-1.4c3.4-4.7,4.1-11,1.7-16.3c-0.2-0.5,0-1.1,0.5-1.3      c0.5-0.2,1.1,0,1.3,0.5c2.6,6,1.9,13-1.9,18.3C50.3,88.3,50,88.5,49.7,88.5z"/></g></g><g><g><path d="M35.2,82.5c-0.5,0-0.9-0.3-1-0.8c-0.1-0.5,0.3-1,0.8-1.1c5.8-0.9,10.7-4.9,12.8-10.3c0.2-0.5,0.8-0.8,1.3-0.6      c0.5,0.2,0.8,0.8,0.6,1.3c-2.3,6.1-7.8,10.5-14.3,11.5C35.3,82.5,35.2,82.5,35.2,82.5z"/></g></g><g><g><path d="M39.4,71.3c-3.8,0-7.6-1.2-10.8-3.5c-0.4-0.3-0.5-0.9-0.2-1.4c0.3-0.4,0.9-0.5,1.4-0.2c4.7,3.4,11,4.1,16.3,1.7      c0.5-0.2,1.1,0,1.3,0.5c0.2,0.5,0,1.1-0.5,1.3C44.5,70.8,42,71.3,39.4,71.3z"/></g></g><g><g><path d="M46.1,67c-0.1,0-0.2,0-0.4-0.1c-6.1-2.3-10.5-7.8-11.5-14.3c-0.1-0.5,0.3-1,0.8-1.1c0.5-0.1,1,0.3,1.1,0.8      C37.1,58.1,41,63,46.5,65.1c0.5,0.2,0.8,0.8,0.6,1.3C46.9,66.8,46.5,67,46.1,67z"/></g></g><g><g><path d="M47.8,64.8c-0.4,0-0.7-0.2-0.9-0.6c-2.6-6-1.9-13,1.9-18.3c0.3-0.4,0.9-0.5,1.4-0.2c0.4,0.3,0.5,0.9,0.2,1.4      c-3.4,4.7-4.1,11-1.7,16.3c0.2,0.5,0,1.1-0.5,1.3C48.1,64.8,48,64.8,47.8,64.8z"/></g></g><g><g><path d="M50.6,64.4c-0.1,0-0.2,0-0.4-0.1c-0.5-0.2-0.8-0.8-0.6-1.3C52.1,57,57.5,52.6,64,51.5c0.6-0.1,1,0.3,1.1,0.8      c0.1,0.5-0.3,1-0.8,1.1c-5.8,0.9-10.7,4.9-12.8,10.3C51.4,64.2,51,64.4,50.6,64.4z"/></g></g><g><g><path d="M49.7,71.7c-2.6,0-4.7-2.1-4.7-4.7s2.1-4.7,4.7-4.7c2.6,0,4.7,2.1,4.7,4.7S52.3,71.7,49.7,71.7z M49.7,64.3      c-1.5,0-2.7,1.2-2.7,2.7s1.2,2.7,2.7,2.7c1.5,0,2.7-1.2,2.7-2.7S51.2,64.3,49.7,64.3z"/></g></g><g><g><path d="M98.1,88.5c-11.9,0-21.5-9.6-21.5-21.5s9.6-21.5,21.5-21.5s21.5,9.6,21.5,21.5S110,88.5,98.1,88.5z M98.1,47.5      c-10.8,0-19.5,8.8-19.5,19.5s8.8,19.5,19.5,19.5c10.8,0,19.5-8.8,19.5-19.5S108.9,47.5,98.1,47.5z"/></g></g><g><g><path d="M118.6,68c-0.2,0-0.4-0.1-0.6-0.2c-4.7-3.4-11-4.1-16.3-1.7c-0.5,0.2-1.1,0-1.3-0.5c-0.2-0.5,0-1.1,0.5-1.3      c6-2.7,13-1.9,18.3,1.9c0.4,0.3,0.5,0.9,0.2,1.4C119.2,67.8,118.9,68,118.6,68z"/></g></g><g><g><path d="M112.6,82.5c-0.5,0-0.9-0.3-1-0.8c-0.9-5.8-4.9-10.7-10.3-12.8c-0.5-0.2-0.8-0.8-0.6-1.3c0.2-0.5,0.8-0.8,1.3-0.6      c6.1,2.3,10.5,7.8,11.5,14.3c0.1,0.5-0.3,1-0.8,1.1C112.7,82.5,112.7,82.5,112.6,82.5z"/></g></g><g><g><path d="M98.1,88.5c-0.2,0-0.4-0.1-0.6-0.2c-0.4-0.3-0.5-0.9-0.2-1.4c3.4-4.7,4.1-11,1.7-16.3c-0.2-0.5,0-1.1,0.5-1.3      c0.5-0.2,1.1,0,1.3,0.5c2.6,6,1.9,13-1.9,18.3C98.7,88.3,98.4,88.5,98.1,88.5z"/></g></g><g><g><path d="M83.6,82.5c-0.5,0-0.9-0.3-1-0.8c-0.1-0.5,0.3-1,0.8-1.1c5.8-0.9,10.7-4.9,12.8-10.3c0.2-0.5,0.8-0.8,1.3-0.6      c0.5,0.2,0.8,0.8,0.6,1.3c-2.3,6.1-7.8,10.5-14.3,11.5C83.7,82.5,83.7,82.5,83.6,82.5z"/></g></g><g><g><path d="M87.9,71.3c-3.8,0-7.6-1.2-10.8-3.5c-0.4-0.3-0.5-0.9-0.2-1.4c0.3-0.4,0.9-0.5,1.4-0.2c4.7,3.4,11,4.1,16.3,1.7      c0.5-0.2,1.1,0,1.3,0.5c0.2,0.5,0,1.1-0.5,1.3C92.9,70.8,90.4,71.3,87.9,71.3z"/></g></g><g><g><path d="M94.5,67c-0.1,0-0.2,0-0.4-0.1c-6.1-2.3-10.5-7.8-11.5-14.3c-0.1-0.5,0.3-1,0.8-1.1c0.5-0.1,1,0.3,1.1,0.8      c0.9,5.8,4.9,10.7,10.3,12.8c0.5,0.2,0.8,0.8,0.6,1.3C95.3,66.8,94.9,67,94.5,67z"/></g></g><g><g><path d="M96.3,64.8c-0.4,0-0.7-0.2-0.9-0.6c-2.6-6-1.9-13,1.9-18.3c0.3-0.4,0.9-0.5,1.4-0.2c0.4,0.3,0.5,0.9,0.2,1.4      c-3.4,4.7-4.1,11-1.7,16.3c0.2,0.5,0,1.1-0.5,1.3C96.5,64.8,96.4,64.8,96.3,64.8z"/></g></g><g><g><path d="M99.1,64.4c-0.1,0-0.2,0-0.4-0.1c-0.5-0.2-0.8-0.8-0.6-1.3c2.3-6.1,7.8-10.5,14.3-11.5c0.5-0.1,1,0.3,1.1,0.8      c0.1,0.5-0.3,1-0.8,1.1c-5.8,0.9-10.7,4.9-12.8,10.3C99.8,64.2,99.5,64.4,99.1,64.4z"/></g></g><g><g><path d="M98.1,71.7c-2.6,0-4.7-2.1-4.7-4.7s2.1-4.7,4.7-4.7c2.6,0,4.7,2.1,4.7,4.7S100.7,71.7,98.1,71.7z M98.1,64.3      c-1.5,0-2.7,1.2-2.7,2.7s1.2,2.7,2.7,2.7c1.5,0,2.7-1.2,2.7-2.7S99.6,64.3,98.1,64.3z"/></g></g></g><g><g><path d="M52.9,103.4h-13c-0.5,0-1-0.4-1-1v-6.2c0-0.5,0.4-1,1-1h13c0.5,0,1,0.4,1,1v6.2C53.9,103,53.4,103.4,52.9,103.4z      M40.8,101.5h11.1v-4.2H40.8V101.5z"/></g></g><g><g><path d="M99.4,103.4h-40c-0.5,0-1-0.4-1-1v-6.2c0-0.5,0.4-1,1-1h40c0.5,0,1,0.4,1,1v6.2C100.4,103,99.9,103.4,99.4,103.4z      M60.4,101.5h38v-4.2h-38V101.5z"/></g></g><g><g><g><path d="M121.1,97.3H16.8V36.7h109.3c2.7,0,4.9,2.2,4.9,4.9v15l-4.6,2v33.3L121.1,97.3z M18.8,95.3h101.5l4.2-4.2V57.3l4.6-2      V41.6c0-1.6-1.3-3-3-3H18.8V95.3z"/></g></g></g></g></svg>