<?xml version="1.0" ?><!DOCTYPE svg  PUBLIC '-//W3C//DTD SVG 1.1//EN'  'http://www.w3.org/Graphics/SVG/1.1/DTD/svg11.dtd'><svg enable-background="new 0 0 32 32" height="32px" version="1.1" viewBox="0 0 32 32" width="32px" xml:space="preserve" xmlns="http://www.w3.org/2000/svg" xmlns:xlink="http://www.w3.org/1999/xlink"><g id="hardware_x2C__motherboard"><g><path d="M3.5,26h-1C2.224,26,2,25.776,2,25.5S2.224,25,2.5,25h1C3.776,25,4,25.224,4,25.5S3.776,26,3.5,26z" fill="#263238"/><path d="M3.5,24h-1C2.224,24,2,23.776,2,23.5S2.224,23,2.5,23h1C3.776,23,4,23.224,4,23.5S3.776,24,3.5,24z" fill="#263238"/><path d="M3.5,22h-1C2.224,22,2,21.776,2,21.5S2.224,21,2.5,21h1C3.776,21,4,21.224,4,21.5S3.776,22,3.5,22z" fill="#263238"/><path d="M3.5,20h-1C2.224,20,2,19.776,2,19.5S2.224,19,2.5,19h1C3.776,19,4,19.224,4,19.5S3.776,20,3.5,20z" fill="#263238"/></g><g><path d="M11.5,14h-1c-0.276,0-0.5-0.224-0.5-0.5s0.224-0.5,0.5-0.5h1c0.276,0,0.5,0.224,0.5,0.5S11.776,14,11.5,14    z" fill="#263238"/><path d="M11.5,12h-1c-0.276,0-0.5-0.224-0.5-0.5s0.224-0.5,0.5-0.5h1c0.276,0,0.5,0.224,0.5,0.5S11.776,12,11.5,12    z" fill="#263238"/><path d="M11.5,10h-1C10.224,10,10,9.776,10,9.5S10.224,9,10.5,9h1C11.776,9,12,9.224,12,9.5S11.776,10,11.5,10z" fill="#263238"/><path d="M11.5,8h-1C10.224,8,10,7.776,10,7.5S10.224,7,10.5,7h1C11.776,7,12,7.224,12,7.5S11.776,8,11.5,8z" fill="#263238"/><path d="M20.5,14h-1c-0.276,0-0.5-0.224-0.5-0.5s0.224-0.5,0.5-0.5h1c0.276,0,0.5,0.224,0.5,0.5S20.776,14,20.5,14    z" fill="#263238"/><path d="M20.5,12h-1c-0.276,0-0.5-0.224-0.5-0.5s0.224-0.5,0.5-0.5h1c0.276,0,0.5,0.224,0.5,0.5S20.776,12,20.5,12    z" fill="#263238"/><path d="M20.5,10h-1C19.224,10,19,9.776,19,9.5S19.224,9,19.5,9h1C20.776,9,21,9.224,21,9.5S20.776,10,20.5,10z" fill="#263238"/><path d="M20.5,8h-1C19.224,8,19,7.776,19,7.5S19.224,7,19.5,7h1C20.776,7,21,7.224,21,7.5S20.776,8,20.5,8z" fill="#263238"/></g><g><path d="M18.5,16c-0.276,0-0.5-0.224-0.5-0.5v-1c0-0.276,0.224-0.5,0.5-0.5s0.5,0.224,0.5,0.5v1    C19,15.776,18.776,16,18.5,16z" fill="#263238"/><path d="M16.5,16c-0.276,0-0.5-0.224-0.5-0.5v-1c0-0.276,0.224-0.5,0.5-0.5s0.5,0.224,0.5,0.5v1    C17,15.776,16.776,16,16.5,16z" fill="#263238"/><path d="M14.5,16c-0.276,0-0.5-0.224-0.5-0.5v-1c0-0.276,0.224-0.5,0.5-0.5s0.5,0.224,0.5,0.5v1    C15,15.776,14.776,16,14.5,16z" fill="#263238"/><path d="M12.5,16c-0.276,0-0.5-0.224-0.5-0.5v-1c0-0.276,0.224-0.5,0.5-0.5s0.5,0.224,0.5,0.5v1    C13,15.776,12.776,16,12.5,16z" fill="#263238"/><path d="M18.5,7C18.224,7,18,6.776,18,6.5v-1C18,5.224,18.224,5,18.5,5S19,5.224,19,5.5v1    C19,6.776,18.776,7,18.5,7z" fill="#263238"/><path d="M16.5,7C16.224,7,16,6.776,16,6.5v-1C16,5.224,16.224,5,16.5,5S17,5.224,17,5.5v1    C17,6.776,16.776,7,16.5,7z" fill="#263238"/><path d="M14.5,7C14.224,7,14,6.776,14,6.5v-1C14,5.224,14.224,5,14.5,5S15,5.224,15,5.5v1    C15,6.776,14.776,7,14.5,7z" fill="#263238"/><path d="M12.5,7C12.224,7,12,6.776,12,6.5v-1C12,5.224,12.224,5,12.5,5S13,5.224,13,5.5v1    C13,6.776,12.776,7,12.5,7z" fill="#263238"/></g><path d="M5.5,18h-3C2.224,18,2,17.776,2,17.5S2.224,17,2.5,17H5V5H2.5C2.224,5,2,4.776,2,4.5S2.224,4,2.5,4h3   C5.776,4,6,4.224,6,4.5v13C6,17.776,5.776,18,5.5,18z" fill="#263238"/><path d="M10.5,26c-0.276,0-0.5-0.224-0.5-0.5v-2c0-0.276,0.224-0.5,0.5-0.5s0.5,0.224,0.5,0.5v2   C11,25.776,10.776,26,10.5,26z" fill="#263238"/><path d="M10.5,28c-0.276,0-0.5-0.224-0.5-0.5v-2c0-0.276,0.224-0.5,0.5-0.5s0.5,0.224,0.5,0.5v2   C11,27.776,10.776,28,10.5,28z" fill="#263238"/><g><path d="M19.5,26h-13C6.224,26,6,25.776,6,25.5v-2C6,23.224,6.224,23,6.5,23h13c0.276,0,0.5,0.224,0.5,0.5v2    C20,25.776,19.776,26,19.5,26z M7,25h12v-1H7V25z" fill="#263238"/></g><g><path d="M19.5,28h-13C6.224,28,6,27.776,6,27.5v-2C6,25.224,6.224,25,6.5,25h13c0.276,0,0.5,0.224,0.5,0.5v2    C20,27.776,19.776,28,19.5,28z M7,27h12v-1H7V27z" fill="#263238"/></g><g><path d="M26.5,21c-0.276,0-0.5-0.224-0.5-0.5v-1c0-0.276,0.224-0.5,0.5-0.5s0.5,0.224,0.5,0.5v1    C27,20.776,26.776,21,26.5,21z" fill="#263238"/><path d="M24.5,21c-0.276,0-0.5-0.224-0.5-0.5v-1c0-0.276,0.224-0.5,0.5-0.5s0.5,0.224,0.5,0.5v1    C25,20.776,24.776,21,24.5,21z" fill="#263238"/><path d="M26.5,6C26.224,6,26,5.776,26,5.5v-1C26,4.224,26.224,4,26.5,4S27,4.224,27,4.5v1    C27,5.776,26.776,6,26.5,6z" fill="#263238"/><path d="M24.5,6C24.224,6,24,5.776,24,5.5v-1C24,4.224,24.224,4,24.5,4S25,4.224,25,4.5v1    C25,5.776,24.776,6,24.5,6z" fill="#263238"/><g><path d="M25.5,20h-2c-0.276,0-0.5-0.224-0.5-0.5v-14C23,5.224,23.224,5,23.5,5h2C25.776,5,26,5.224,26,5.5v14     C26,19.776,25.776,20,25.5,20z M24,19h1V6h-1V19z" fill="#263238"/></g><g><path d="M27.5,20h-2c-0.276,0-0.5-0.224-0.5-0.5v-14C25,5.224,25.224,5,25.5,5h2C27.776,5,28,5.224,28,5.5v14     C28,19.776,27.776,20,27.5,20z M26,19h1V6h-1V19z" fill="#263238"/></g></g><path d="M19.5,15h-8c-0.276,0-0.5-0.224-0.5-0.5v-8C11,6.224,11.224,6,11.5,6h8C19.776,6,20,6.224,20,6.5v8   C20,14.776,19.776,15,19.5,15z M12,14h7V7h-7V14z" fill="#263238"/><g><circle cx="11.5" cy="21.5" fill="#263238" r="0.5"/><circle cx="13.5" cy="21.5" fill="#263238" r="0.5"/><circle cx="19.5" cy="17.5" fill="#263238" r="0.5"/><circle cx="15.5" cy="17.5" fill="#263238" r="0.5"/><circle cx="17.5" cy="17.5" fill="#263238" r="0.5"/><circle cx="9.5" cy="17.5" fill="#263238" r="0.5"/><circle cx="13.5" cy="17.5" fill="#263238" r="0.5"/><circle cx="19.5" cy="19.5" fill="#263238" r="0.5"/><circle cx="19.5" cy="21.5" fill="#263238" r="0.5"/><circle cx="17.5" cy="19.5" fill="#263238" r="0.5"/><circle cx="17.5" cy="21.5" fill="#263238" r="0.5"/><circle cx="15.5" cy="21.5" fill="#263238" r="0.5"/><circle cx="13.5" cy="19.5" fill="#263238" r="0.5"/><circle cx="11.5" cy="19.5" fill="#263238" r="0.5"/><circle cx="7.5" cy="19.5" fill="#263238" r="0.5"/><circle cx="9.5" cy="19.5" fill="#263238" r="0.5"/><circle cx="9.5" cy="21.5" fill="#263238" r="0.5"/><circle cx="7.5" cy="16.5" fill="#263238" r="0.5"/><circle cx="7.5" cy="14.5" fill="#263238" r="0.5"/><circle cx="7.5" cy="12.5" fill="#263238" r="0.5"/><circle cx="7.5" cy="10.5" fill="#263238" r="0.5"/><circle cx="7.5" cy="8.5" fill="#263238" r="0.5"/><circle cx="7.5" cy="4.5" fill="#263238" r="0.5"/><circle cx="7.5" cy="6.5" fill="#263238" r="0.5"/><circle cx="7.5" cy="21.5" fill="#263238" r="0.5"/></g><g><path d="M27.5,28h-5c-0.276,0-0.5-0.224-0.5-0.5v-5c0-0.276,0.224-0.5,0.5-0.5h5c0.276,0,0.5,0.224,0.5,0.5v5    C28,27.776,27.776,28,27.5,28z M23,27h4v-4h-4V27z" fill="#263238"/></g><g><path d="M5.5,9h-3C2.224,9,2,8.776,2,8.5S2.224,8,2.5,8h3C5.776,8,6,8.224,6,8.5S5.776,9,5.5,9z" fill="#263238"/></g><path d="M29.5,30h-27C2.224,30,2,29.776,2,29.5v-27C2,2.224,2.224,2,2.5,2h27C29.776,2,30,2.224,30,2.5v27   C30,29.776,29.776,30,29.5,30z M3,29h26V3H3V29z" fill="#263238"/></g></svg>