<?xml version="1.0" ?><svg viewBox="0 0 64 64" xmlns="http://www.w3.org/2000/svg"><g id="Outline"><path d="M61.925,16.626l-.006-.019h0l-3-7A1,1,0,0,0,58,9H6a1,1,0,0,0-.919.606l-3,7h0l0,.019a.979.979,0,0,0-.068.332c0,.015-.008.027-.008.042V55a1,1,0,0,0,1,1H61a1,1,0,0,0,1-1V17c0-.015-.008-.027-.008-.042A1.012,1.012,0,0,0,61.925,16.626ZM6.659,11H57.341l2.142,5H4.517ZM60,54H4V18H60Z"/><path d="M45.293,33.707A1,1,0,0,0,46,34h8a1,1,0,0,0,.707-.293l3-3A1,1,0,0,0,58,30V25a1,1,0,0,0-1-1H43a1,1,0,0,0-1,1v5a1,1,0,0,0,.293.707ZM44,26H56v3.586L53.586,32H46.414L44,29.586Z"/><path d="M47.71,28.71a1.169,1.169,0,0,0,.21-.33A1,1,0,0,0,48,28a1,1,0,1,0-2,0,1,1,0,0,0,.08.38,1.169,1.169,0,0,0,.21.33,1.014,1.014,0,0,0,1.42,0Z"/><path d="M49.62,30.92a.99.99,0,0,0,1.09-.21,1.169,1.169,0,0,0,.21-.33A1,1,0,0,0,51,30a1,1,0,0,0-1.71-.71A1.025,1.025,0,0,0,49,30a.99.99,0,0,0,.29.71A1.155,1.155,0,0,0,49.62,30.92Z"/><path d="M52.29,28.71a1.014,1.014,0,0,0,1.42,0,1.169,1.169,0,0,0,.21-.33A1,1,0,0,0,54,28a1.05,1.05,0,0,0-.29-.71,1.018,1.018,0,0,0-.91-.27.636.636,0,0,0-.18.06.782.782,0,0,0-.181.09,1.7,1.7,0,0,0-.149.12A1.045,1.045,0,0,0,52,28a.838.838,0,0,0,.08.38A1.169,1.169,0,0,0,52.29,28.71Z"/><path d="M56,42H44a1,1,0,0,0-1,1v6a1,1,0,0,0,1,1H56a1,1,0,0,0,1-1V43A1,1,0,0,0,56,42ZM45,44h4v4H45Zm10,4H51V44h4Z"/><path d="M7,52h4V50H8V47H6v4A1,1,0,0,0,7,52Z"/><path d="M36,25h2V21a1,1,0,0,0-1-1H33v2h3Z"/><path d="M8,22h3V20H7a1,1,0,0,0-1,1v4H8Z"/><path d="M36,50H33v2h4a1,1,0,0,0,1-1V47H36Z"/><path d="M22,21A15,15,0,1,0,37,36,15.017,15.017,0,0,0,22,21Zm8.448,22.034a10.97,10.97,0,0,0,0-14.068l1.413-1.413a12.935,12.935,0,0,1,0,16.894ZM27,36a4.969,4.969,0,0,1-.833,2.753L24.7,37.285a2.893,2.893,0,0,0,0-2.57l1.468-1.468A4.969,4.969,0,0,1,27,36ZM17,36a4.969,4.969,0,0,1,.833-2.753L19.3,34.715a2.893,2.893,0,0,0,0,2.57l-1.468,1.468A4.969,4.969,0,0,1,17,36Zm4,0a1,1,0,1,1,1,1A1,1,0,0,1,21,36Zm2.285-2.7a2.893,2.893,0,0,0-2.57,0l-1.468-1.468a4.966,4.966,0,0,1,5.506,0Zm-2.57,5.4a2.893,2.893,0,0,0,2.57,0l1.468,1.468a4.966,4.966,0,0,1-5.506,0Zm5.469-8.3a6.944,6.944,0,0,0-8.368,0l-1.427-1.427a8.958,8.958,0,0,1,11.222,0ZM16.4,31.816a6.944,6.944,0,0,0,0,8.368l-1.427,1.427a8.958,8.958,0,0,1,0-11.222ZM17.816,41.6a6.944,6.944,0,0,0,8.368,0l1.427,1.427a8.958,8.958,0,0,1-11.222,0ZM27.6,40.184a6.944,6.944,0,0,0,0-8.368l1.427-1.427a8.958,8.958,0,0,1,0,11.222Zm2.849-14.045-1.413,1.413a10.97,10.97,0,0,0-14.068,0l-1.413-1.413a12.935,12.935,0,0,1,16.894,0ZM12.139,27.553l1.413,1.413a10.97,10.97,0,0,0,0,14.068l-1.413,1.413a12.935,12.935,0,0,1,0-16.894Zm1.414,18.308,1.413-1.413a10.97,10.97,0,0,0,14.068,0l1.413,1.413a12.935,12.935,0,0,1-16.894,0Z"/></g></svg>