<?xml version="1.0" ?><!DOCTYPE svg  PUBLIC '-//W3C//DTD SVG 1.1//EN'  'http://www.w3.org/Graphics/SVG/1.1/DTD/svg11.dtd'><svg enable-background="new 0 0 32 32" height="32px" version="1.1" viewBox="0 0 32 32" width="32px" xml:space="preserve" xmlns="http://www.w3.org/2000/svg" xmlns:xlink="http://www.w3.org/1999/xlink"><g id="random_access_memory_x2C__RAM_x2C__chip"><g><g><g><g><g><g><path d="M12.5,27c-0.276,0-0.5-0.224-0.5-0.5v-1c0-0.276,0.224-0.5,0.5-0.5s0.5,0.224,0.5,0.5v1         C13,26.776,12.776,27,12.5,27z" fill="#263238"/></g></g></g></g><g><g><g><g><path d="M10.5,27c-0.276,0-0.5-0.224-0.5-0.5v-1c0-0.276,0.224-0.5,0.5-0.5s0.5,0.224,0.5,0.5v1         C11,26.776,10.776,27,10.5,27z" fill="#263238"/></g></g></g></g><g><g><g><g><path d="M8.5,27C8.224,27,8,26.776,8,26.5v-1C8,25.224,8.224,25,8.5,25S9,25.224,9,25.5v1         C9,26.776,8.776,27,8.5,27z" fill="#263238"/></g></g></g></g><g><g><g><g><path d="M6.5,27C6.224,27,6,26.776,6,26.5v-1C6,25.224,6.224,25,6.5,25S7,25.224,7,25.5v1         C7,26.776,6.776,27,6.5,27z" fill="#263238"/></g></g></g></g><g><g><g><g><path d="M4.5,27C4.224,27,4,26.776,4,26.5v-1C4,25.224,4.224,25,4.5,25S5,25.224,5,25.5v1         C5,26.776,4.776,27,4.5,27z" fill="#263238"/></g></g></g></g></g><g><g><g><g><g><path d="M30.5,27c-0.276,0-0.5-0.224-0.5-0.5v-1c0-0.276,0.224-0.5,0.5-0.5s0.5,0.224,0.5,0.5v1         C31,26.776,30.776,27,30.5,27z" fill="#263238"/></g></g></g><g><g><g><path d="M28.5,27c-0.276,0-0.5-0.224-0.5-0.5v-1c0-0.276,0.224-0.5,0.5-0.5s0.5,0.224,0.5,0.5v1         C29,26.776,28.776,27,28.5,27z" fill="#263238"/></g></g></g></g><g><g><g><g><path d="M26.5,27c-0.276,0-0.5-0.224-0.5-0.5v-1c0-0.276,0.224-0.5,0.5-0.5s0.5,0.224,0.5,0.5v1         C27,26.776,26.776,27,26.5,27z" fill="#263238"/></g></g></g></g><g><g><g><g><path d="M24.5,27c-0.276,0-0.5-0.224-0.5-0.5v-1c0-0.276,0.224-0.5,0.5-0.5s0.5,0.224,0.5,0.5v1         C25,26.776,24.776,27,24.5,27z" fill="#263238"/></g></g></g></g><g><g><g><g><path d="M22.5,27c-0.276,0-0.5-0.224-0.5-0.5v-1c0-0.276,0.224-0.5,0.5-0.5s0.5,0.224,0.5,0.5v1         C23,26.776,22.776,27,22.5,27z" fill="#263238"/></g></g></g></g><g><g><g><g><path d="M18.5,27c-0.276,0-0.5-0.224-0.5-0.5v-1c0-0.276,0.224-0.5,0.5-0.5s0.5,0.224,0.5,0.5v1         C19,26.776,18.776,27,18.5,27z" fill="#263238"/></g></g></g><g><g><g><path d="M20.5,27c-0.276,0-0.5-0.224-0.5-0.5v-1c0-0.276,0.224-0.5,0.5-0.5s0.5,0.224,0.5,0.5v1         C21,26.776,20.776,27,20.5,27z" fill="#263238"/></g></g></g></g></g><path d="M30.5,20c-0.276,0-0.5-0.224-0.5-0.5V18H2v1.5C2,19.776,1.776,20,1.5,20S1,19.776,1,19.5v-2    C1,17.224,1.224,17,1.5,17h29c0.276,0,0.5,0.224,0.5,0.5v2C31,19.776,30.776,20,30.5,20z" fill="#263238"/><path d="M30.5,23c-0.276,0-0.5-0.224-0.5-0.5v-1c0-0.276,0.224-0.5,0.5-0.5s0.5,0.224,0.5,0.5v1    C31,22.776,30.776,23,30.5,23z" fill="#263238"/><path d="M30.5,27h-14c-0.276,0-0.5-0.224-0.5-0.5V25h-1v1.5c0,0.276-0.224,0.5-0.5,0.5h-13    C1.224,27,1,26.776,1,26.5v-1.979c0-0.276,0.224-0.5,0.5-0.5s0.5,0.224,0.5,0.5V26h12v-1.5c0-0.276,0.224-0.5,0.5-0.5h2    c0.276,0,0.5,0.224,0.5,0.5V26h13v-1.5c0-0.276,0.224-0.5,0.5-0.5s0.5,0.224,0.5,0.5v2C31,26.776,30.776,27,30.5,27z" fill="#263238"/><path d="M1.5,22.979c-0.276,0-0.5-0.224-0.5-0.5V21.5C1,21.224,1.224,21,1.5,21S2,21.224,2,21.5v0.979    C2,22.755,1.776,22.979,1.5,22.979z" fill="#263238"/><g><path d="M5.5,24h-2C3.224,24,3,23.776,3,23.5v-4C3,19.224,3.224,19,3.5,19h2C5.776,19,6,19.224,6,19.5v4     C6,23.776,5.776,24,5.5,24z M4,23h1v-3H4V23z" fill="#263238"/></g><g><path d="M9.5,24h-2C7.224,24,7,23.776,7,23.5v-4C7,19.224,7.224,19,7.5,19h2c0.276,0,0.5,0.224,0.5,0.5v4     C10,23.776,9.776,24,9.5,24z M8,23h1v-3H8V23z" fill="#263238"/></g><g><path d="M13.5,24h-2c-0.276,0-0.5-0.224-0.5-0.5v-4c0-0.276,0.224-0.5,0.5-0.5h2c0.276,0,0.5,0.224,0.5,0.5v4     C14,23.776,13.776,24,13.5,24z M12,23h1v-3h-1V23z" fill="#263238"/></g><g><path d="M20.5,24h-2c-0.276,0-0.5-0.224-0.5-0.5v-4c0-0.276,0.224-0.5,0.5-0.5h2c0.276,0,0.5,0.224,0.5,0.5v4     C21,23.776,20.776,24,20.5,24z M19,23h1v-3h-1V23z" fill="#263238"/></g><g><path d="M24.5,24h-2c-0.276,0-0.5-0.224-0.5-0.5v-4c0-0.276,0.224-0.5,0.5-0.5h2c0.276,0,0.5,0.224,0.5,0.5v4     C25,23.776,24.776,24,24.5,24z M23,23h1v-3h-1V23z" fill="#263238"/></g><g><path d="M28.5,24h-2c-0.276,0-0.5-0.224-0.5-0.5v-4c0-0.276,0.224-0.5,0.5-0.5h2c0.276,0,0.5,0.224,0.5,0.5v4     C29,23.776,28.776,24,28.5,24z M27,23h1v-3h-1V23z" fill="#263238"/></g><circle cx="15.5" cy="22.5" fill="#263238" r="0.5"/></g><g><g><g><g><g><g><path d="M12.5,15c-0.276,0-0.5-0.224-0.5-0.5v-1c0-0.276,0.224-0.5,0.5-0.5s0.5,0.224,0.5,0.5v1         C13,14.776,12.776,15,12.5,15z" fill="#263238"/></g></g></g></g><g><g><g><g><path d="M10.5,15c-0.276,0-0.5-0.224-0.5-0.5v-1c0-0.276,0.224-0.5,0.5-0.5s0.5,0.224,0.5,0.5v1         C11,14.776,10.776,15,10.5,15z" fill="#263238"/></g></g></g></g><g><g><g><g><path d="M8.5,15C8.224,15,8,14.776,8,14.5v-1C8,13.224,8.224,13,8.5,13S9,13.224,9,13.5v1         C9,14.776,8.776,15,8.5,15z" fill="#263238"/></g></g></g></g><g><g><g><g><path d="M6.5,15C6.224,15,6,14.776,6,14.5v-1C6,13.224,6.224,13,6.5,13S7,13.224,7,13.5v1         C7,14.776,6.776,15,6.5,15z" fill="#263238"/></g></g></g></g><g><g><g><g><path d="M4.5,15C4.224,15,4,14.776,4,14.5v-1C4,13.224,4.224,13,4.5,13S5,13.224,5,13.5v1         C5,14.776,4.776,15,4.5,15z" fill="#263238"/></g></g></g></g></g><g><g><g><g><g><path d="M30.5,15c-0.276,0-0.5-0.224-0.5-0.5v-1c0-0.276,0.224-0.5,0.5-0.5s0.5,0.224,0.5,0.5v1         C31,14.776,30.776,15,30.5,15z" fill="#263238"/></g></g></g><g><g><g><path d="M28.5,15c-0.276,0-0.5-0.224-0.5-0.5v-1c0-0.276,0.224-0.5,0.5-0.5s0.5,0.224,0.5,0.5v1         C29,14.776,28.776,15,28.5,15z" fill="#263238"/></g></g></g></g><g><g><g><g><path d="M26.5,15c-0.276,0-0.5-0.224-0.5-0.5v-1c0-0.276,0.224-0.5,0.5-0.5s0.5,0.224,0.5,0.5v1         C27,14.776,26.776,15,26.5,15z" fill="#263238"/></g></g></g></g><g><g><g><g><path d="M24.5,15c-0.276,0-0.5-0.224-0.5-0.5v-1c0-0.276,0.224-0.5,0.5-0.5s0.5,0.224,0.5,0.5v1         C25,14.776,24.776,15,24.5,15z" fill="#263238"/></g></g></g></g><g><g><g><g><path d="M22.5,15c-0.276,0-0.5-0.224-0.5-0.5v-1c0-0.276,0.224-0.5,0.5-0.5s0.5,0.224,0.5,0.5v1         C23,14.776,22.776,15,22.5,15z" fill="#263238"/></g></g></g></g><g><g><g><g><path d="M18.5,15c-0.276,0-0.5-0.224-0.5-0.5v-1c0-0.276,0.224-0.5,0.5-0.5s0.5,0.224,0.5,0.5v1         C19,14.776,18.776,15,18.5,15z" fill="#263238"/></g></g></g><g><g><g><path d="M20.5,15c-0.276,0-0.5-0.224-0.5-0.5v-1c0-0.276,0.224-0.5,0.5-0.5s0.5,0.224,0.5,0.5v1         C21,14.776,20.776,15,20.5,15z" fill="#263238"/></g></g></g></g></g><path d="M30.5,8C30.224,8,30,7.776,30,7.5V6H2v1.5C2,7.776,1.776,8,1.5,8S1,7.776,1,7.5v-2C1,5.224,1.224,5,1.5,5    h29C30.776,5,31,5.224,31,5.5v2C31,7.776,30.776,8,30.5,8z" fill="#263238"/><path d="M30.5,11c-0.276,0-0.5-0.224-0.5-0.5v-1C30,9.224,30.224,9,30.5,9S31,9.224,31,9.5v1    C31,10.776,30.776,11,30.5,11z" fill="#263238"/><path d="M30.5,15h-14c-0.276,0-0.5-0.224-0.5-0.5V13h-1v1.5c0,0.276-0.224,0.5-0.5,0.5h-13    C1.224,15,1,14.776,1,14.5v-1.979c0-0.276,0.224-0.5,0.5-0.5s0.5,0.224,0.5,0.5V14h12v-1.5c0-0.276,0.224-0.5,0.5-0.5h2    c0.276,0,0.5,0.224,0.5,0.5V14h13v-1.5c0-0.276,0.224-0.5,0.5-0.5s0.5,0.224,0.5,0.5v2C31,14.776,30.776,15,30.5,15z" fill="#263238"/><path d="M1.5,10.979c-0.276,0-0.5-0.224-0.5-0.5V9.5C1,9.224,1.224,9,1.5,9S2,9.224,2,9.5v0.979    C2,10.755,1.776,10.979,1.5,10.979z" fill="#263238"/><g><path d="M5.5,12h-2C3.224,12,3,11.776,3,11.5v-4C3,7.224,3.224,7,3.5,7h2C5.776,7,6,7.224,6,7.5v4     C6,11.776,5.776,12,5.5,12z M4,11h1V8H4V11z" fill="#263238"/></g><g><path d="M9.5,12h-2C7.224,12,7,11.776,7,11.5v-4C7,7.224,7.224,7,7.5,7h2C9.776,7,10,7.224,10,7.5v4     C10,11.776,9.776,12,9.5,12z M8,11h1V8H8V11z" fill="#263238"/></g><g><path d="M13.5,12h-2c-0.276,0-0.5-0.224-0.5-0.5v-4C11,7.224,11.224,7,11.5,7h2C13.776,7,14,7.224,14,7.5v4     C14,11.776,13.776,12,13.5,12z M12,11h1V8h-1V11z" fill="#263238"/></g><g><path d="M20.5,12h-2c-0.276,0-0.5-0.224-0.5-0.5v-4C18,7.224,18.224,7,18.5,7h2C20.776,7,21,7.224,21,7.5v4     C21,11.776,20.776,12,20.5,12z M19,11h1V8h-1V11z" fill="#263238"/></g><g><path d="M24.5,12h-2c-0.276,0-0.5-0.224-0.5-0.5v-4C22,7.224,22.224,7,22.5,7h2C24.776,7,25,7.224,25,7.5v4     C25,11.776,24.776,12,24.5,12z M23,11h1V8h-1V11z" fill="#263238"/></g><g><path d="M28.5,12h-2c-0.276,0-0.5-0.224-0.5-0.5v-4C26,7.224,26.224,7,26.5,7h2C28.776,7,29,7.224,29,7.5v4     C29,11.776,28.776,12,28.5,12z M27,11h1V8h-1V11z" fill="#263238"/></g><circle cx="15.5" cy="10.5" fill="#263238" r="0.5"/></g><g><g><path d="M16,4H2.5C2.224,4,2,3.776,2,3.5S2.224,3,2.5,3H16c0.276,0,0.5,0.224,0.5,0.5S16.276,4,16,4z" fill="#263238"/></g></g><g><g><g><circle cx="18.5" cy="3.5" fill="#263238" r="0.5"/></g></g></g></g></svg>