<?xml version="1.0" ?><svg enable-background="new 0 0 52 52" id="Layer_1" version="1.1" viewBox="0 0 52 52" xml:space="preserve" xmlns="http://www.w3.org/2000/svg" xmlns:xlink="http://www.w3.org/1999/xlink"><g><g><g><path d="M49.0001488,36h-46c-0.3154297,0-0.6123047-0.1489258-0.8017578-0.4018555     c-0.1884766-0.2524414-0.2470702-0.5795898-0.1572266-0.8823242l8-27C10.167141,7.2915039,10.557766,7,11.0001488,7h15.9042969v2     H11.7472191L4.3390164,34h43.34375l-4.671875-16.730957l1.9257813-0.5380859l5.0263672,18     c0.0839844,0.3012695,0.0224609,0.6245117-0.1660156,0.8735352C49.6075706,35.8535156,49.3126488,36,49.0001488,36z"/></g></g><g><g><path d="M49.0001488,50h-46c-0.5527344,0-1-0.4477539-1-1V35c0-0.5522461,0.4472656-1,1-1h46c0.5527344,0,1,0.4477539,1,1v14     C50.0001488,49.5522461,49.5528831,50,49.0001488,50z M4.0001493,48h44V36h-44V48z"/></g></g><g><g><rect height="2" width="4" x="7.0001493" y="44"/></g></g><g><g><rect height="2" width="38" x="7.0001493" y="39"/></g></g><g><g><path d="M49.0001488,18h-22c-0.5527344,0-1-0.4477539-1-1V3c0-0.5522461,0.4472656-1,1-1h22c0.5527344,0,1,0.4477539,1,1v14     C50.0001488,17.5522461,49.5528831,18,49.0001488,18z M28.0001488,16h20V4h-20V16z"/></g></g><g><g><g><g><path d="M32.9311523,8.4031439c-0.2469482,0-0.4494209,0.0579996-0.6074219,0.1740007       c-0.1585846,0.1163378-0.237587,0.291688-0.237587,0.5263863c0,0.2350368,0.0790024,0.4144335,0.237587,0.5385265       c0.1580009,0.1244316,0.4944839,0.2586412,1.0100327,0.4019556c0.5149651,0.1439896,0.9035263,0.3456421,1.1651039,0.6049576       c0.260994,0.2599897,0.3914909,0.6423874,0.3914909,1.1478672s-0.1650238,0.9158659-0.4962387,1.2308207       c-0.3306313,0.3149557-0.7642517,0.4724331-1.3014526,0.4724331c-0.7859077,0-1.483448-0.3122578-2.0920429-0.9364357       l0.5319347-0.7378178c0.5079422,0.5085144,1.0351944,0.762434,1.5817604,0.762434       c0.2732811,0,0.4903831-0.0674419,0.6507263-0.203001c0.1609268-0.1352215,0.2410965-0.3149548,0.2410965-0.5385265       c0-0.2239075-0.075489-0.3979092-0.2264671-0.5223398c-0.1509781-0.124094-0.4113846-0.2373972-0.7800522-0.339572       c-0.3692551-0.1021748-0.6501427-0.1962566-0.8414993-0.281908c-0.1919403-0.0856524-0.3622303-0.1972694-0.5108681-0.3355255       c-0.2972736-0.2596531-0.4453259-0.6575623-0.4453259-1.1933908s0.1685333-0.9489126,0.5067711-1.238914       c0.3376522-0.2900019,0.7560596-0.4350028,1.2546406-0.4350028c0.3212662,0,0.6401939,0.060698,0.956192,0.1820941       c0.3165855,0.1217332,0.5898705,0.2930369,0.8198471,0.5139098l-0.4529343,0.7374811       c-0.1486359-0.1544428-0.3499413-0.2815714-0.6039124-0.3810482       C33.4285622,8.4530506,33.1781044,8.4031439,32.9311523,8.4031439z"/></g></g><g><g><path d="M37.4610825,8.4031439c-0.2469482,0-0.4494247,0.0579996-0.6074219,0.1740007       c-0.1585884,0.1163378-0.237587,0.291688-0.237587,0.5263863c0,0.2350368,0.0789986,0.4144335,0.237587,0.5385265       c0.1579971,0.1244316,0.4944801,0.2586412,1.0100288,0.4019556c0.5149651,0.1439896,0.9035301,0.3456421,1.1651077,0.6049576       c0.260994,0.2599897,0.3914909,0.6423874,0.3914909,1.1478672s-0.1650238,0.9158659-0.4962387,1.2308207       c-0.3306313,0.3149557-0.7642555,0.4724331-1.3014565,0.4724331c-0.7859039,0-1.483448-0.3122578-2.092041-0.9364357       l0.5319366-0.7378178c0.5079384,0.5085144,1.0351944,0.762434,1.5817566,0.762434       c0.2732811,0,0.490387-0.0674419,0.6507263-0.203001c0.1609268-0.1352215,0.2410965-0.3149548,0.2410965-0.5385265       c0-0.2239075-0.075489-0.3979092-0.2264671-0.5223398c-0.1509781-0.124094-0.4113846-0.2373972-0.7800522-0.339572       c-0.3692513-0.1021748-0.6501427-0.1962566-0.8414993-0.281908c-0.1919403-0.0856524-0.3622284-0.1972694-0.5108643-0.3355255       c-0.2972755-0.2596531-0.4453278-0.6575623-0.4453278-1.1933908s0.1685333-0.9489126,0.5067711-1.238914       c0.3376503-0.2900019,0.7560616-0.4350028,1.2546387-0.4350028c0.3212662,0,0.6401939,0.060698,0.9561958,0.1820941       c0.3165855,0.1217332,0.5898666,0.2930369,0.8198471,0.5139098l-0.4529343,0.7374811       c-0.1486397-0.1544428-0.3499451-0.2815714-0.6039124-0.3810482       C37.9584923,8.4530506,37.7080307,8.4031439,37.4610825,8.4031439z"/></g></g><g><g><path d="M44.2744064,8.3990965c0.4845352,0.5054798,0.7262192,1.2085657,0.7262192,2.1092567       c0,0.9003544-0.2346611,1.6132193-0.704567,2.1379194c-0.469902,0.5250378-1.1890984,0.7873888-2.1569977,0.7873888h-1.6683655       V7.6407089h1.7257156C43.097599,7.6407089,43.7904587,7.8936172,44.2744064,8.3990965z M44.1450806,10.5329695       c0-1.3259144-0.6589203-1.9888716-1.9773445-1.9888716h-0.8485184v3.9696512h0.9421501       c0.608593,0,1.0749855-0.1669197,1.3985939-0.5014334C43.9835701,11.6781397,44.1450806,11.1851368,44.1450806,10.5329695z"/></g></g></g></g></g></svg>